<svg xmlns="http://www.w3.org/2000/svg" xmlns:xlink="http://www.w3.org/1999/xlink" contentStyleType="text/css" height="1184px" preserveAspectRatio="none" style="width:1128px;height:1184px;background:#FFFFFF;" version="1.1" viewBox="0 0 1128 1184" width="1128px" zoomAndPan="magnify"><defs/><g><!--entity Admin--><g id="elem_Admin"><ellipse cx="72.0349" cy="231.439" fill="#F1F1F1" rx="8" ry="8" style="stroke:#181818;stroke-width:0.5;"/><path d="M72.0349,239.439 L72.0349,266.439 M59.0349,247.439 L85.0349,247.439 M72.0349,266.439 L59.0349,281.439 M72.0349,266.439 L85.0349,281.439 " fill="none" style="stroke:#181818;stroke-width:0.5;"/><text fill="#000000" font-family="sans-serif" font-size="14" lengthAdjust="spacing" textLength="42.9098" x="50.58" y="297.9049">Admin</text></g><!--entity Entrepreneur--><g id="elem_Entrepreneur"><ellipse cx="72.0388" cy="917.439" fill="#F1F1F1" rx="8" ry="8" style="stroke:#181818;stroke-width:0.5;"/><path d="M72.0388,925.439 L72.0388,952.439 M59.0388,933.439 L85.0388,933.439 M72.0388,952.439 L59.0388,967.439 M72.0388,952.439 L85.0388,967.439 " fill="none" style="stroke:#181818;stroke-width:0.5;"/><text fill="#000000" font-family="sans-serif" font-size="14" lengthAdjust="spacing" textLength="88.4377" x="27.82" y="983.9049">Entrepreneur</text></g><!--entity Miner--><g id="elem_Miner"><ellipse cx="72.0399" cy="412.439" fill="#F1F1F1" rx="8" ry="8" style="stroke:#181818;stroke-width:0.5;"/><path d="M72.0399,420.439 L72.0399,447.439 M59.0399,428.439 L85.0399,428.439 M72.0399,447.439 L59.0399,462.439 M72.0399,447.439 L85.0399,462.439 " fill="none" style="stroke:#181818;stroke-width:0.5;"/><text fill="#000000" font-family="sans-serif" font-size="14" lengthAdjust="spacing" textLength="38.6398" x="52.72" y="478.9049">Miner</text></g><!--entity Blockchain--><g id="elem_Blockchain"><ellipse cx="700.1258" cy="564.439" fill="#F1F1F1" rx="8" ry="8" style="stroke:#181818;stroke-width:0.5;"/><path d="M700.1258,572.439 L700.1258,599.439 M687.1258,580.439 L713.1258,580.439 M700.1258,599.439 L687.1258,614.439 M700.1258,599.439 L713.1258,614.439 " fill="none" style="stroke:#181818;stroke-width:0.5;"/><text fill="#000000" font-family="sans-serif" font-size="14" lengthAdjust="spacing" textLength="121.2115" x="639.52" y="630.9049">Blockchain Service</text></g><g id="elem_CreateOffer"><ellipse cx="371.0878" cy="344.4735" fill="#F1F1F1" rx="71.6078" ry="17.0345" style="stroke:#181818;stroke-width:0.5;"/><text fill="#000000" font-family="sans-serif" font-size="14" lengthAdjust="spacing" textLength="81.2137" x="327.481" y="349.2065">Create Offer</text></g><g id="elem_ValidateOffer"><ellipse cx="700.128" cy="503.4666" fill="#F1F1F1" rx="75.638" ry="17.5276" style="stroke:#181818;stroke-width:0.5;"/><text fill="#000000" font-family="sans-serif" font-size="14" lengthAdjust="spacing" textLength="90.7757" x="651.7402" y="508.1996">Validate Offer</text></g><g id="elem_PushOffer"><ellipse cx="1017.7906" cy="515.4723" fill="#F1F1F1" rx="63.4006" ry="16.9833" style="stroke:#181818;stroke-width:0.5;"/><text fill="#000000" font-family="sans-serif" font-size="14" lengthAdjust="spacing" textLength="70.3637" x="979.6087" y="520.2052">Push Offer</text></g><g id="elem_OfferDeadline"><ellipse cx="700.1345" cy="268.4659" fill="#F1F1F1" rx="77.4845" ry="17.8969" style="stroke:#181818;stroke-width:0.5;"/><text fill="#000000" font-family="sans-serif" font-size="14" lengthAdjust="spacing" textLength="96.2356" x="649.0166" y="273.1989">Offer Deadline</text></g><g id="elem_OfferDocs"><ellipse cx="700.1283" cy="342.4727" fill="#F1F1F1" rx="94.0183" ry="21.2037" style="stroke:#181818;stroke-width:0.5;"/><text fill="#000000" font-family="sans-serif" font-size="14" lengthAdjust="spacing" textLength="140.2794" x="626.9885" y="347.2056">Offer Documentation</text></g><g id="elem_OfferConditions"><ellipse cx="700.1345" cy="417.4679" fill="#F1F1F1" rx="81.8445" ry="18.7689" style="stroke:#181818;stroke-width:0.5;"/><text fill="#000000" font-family="sans-serif" font-size="14" lengthAdjust="spacing" textLength="108.5696" x="642.8497" y="422.2009">Offer Conditions</text></g><g id="elem_CreateProfile"><ellipse cx="371.0869" cy="46.4704" fill="#F1F1F1" rx="75.2569" ry="17.4514" style="stroke:#181818;stroke-width:0.5;"/><text fill="#000000" font-family="sans-serif" font-size="14" lengthAdjust="spacing" textLength="89.6277" x="323.2731" y="51.2034">Create Profile</text></g><g id="elem_UpdateProfile"><ellipse cx="371.0905" cy="116.4711" fill="#F1F1F1" rx="76.9105" ry="17.7821" style="stroke:#181818;stroke-width:0.5;"/><text fill="#000000" font-family="sans-serif" font-size="14" lengthAdjust="spacing" textLength="94.5556" x="320.8127" y="121.2041">Update Profile</text></g><g id="elem_ValidateProfile"><ellipse cx="700.1257" cy="182.4702" fill="#F1F1F1" rx="78.5057" ry="18.1011" style="stroke:#181818;stroke-width:0.5;"/><text fill="#000000" font-family="sans-serif" font-size="14" lengthAdjust="spacing" textLength="99.1896" x="647.5309" y="187.2031">Validate Profile</text></g><g id="elem_PushProfile"><ellipse cx="1017.7851" cy="351.4731" fill="#F1F1F1" rx="69.7651" ry="17.024" style="stroke:#181818;stroke-width:0.5;"/><text fill="#000000" font-family="sans-serif" font-size="14" lengthAdjust="spacing" textLength="78.7777" x="975.3962" y="356.206">Push Profile</text></g><g id="elem_ViewProfile"><ellipse cx="371.0889" cy="721.466" fill="#F1F1F1" rx="68.5789" ry="17.017" style="stroke:#181818;stroke-width:0.5;"/><text fill="#000000" font-family="sans-serif" font-size="14" lengthAdjust="spacing" textLength="77.2097" x="329.4841" y="726.199">View Profile</text></g><g id="elem_CalculateEntrepreneurScore"><ellipse cx="371.0872" cy="266.4724" fill="#F1F1F1" rx="116.0172" ry="25.6034" style="stroke:#181818;stroke-width:0.5;"/><text fill="#000000" font-family="sans-serif" font-size="14" lengthAdjust="spacing" textLength="192.3732" x="271.9006" y="271.2054">Calculate Entrepreneur Score</text></g><g id="elem_GetEntrepreneurHistory"><ellipse cx="1017.7899" cy="602.467" fill="#F1F1F1" rx="104.6399" ry="23.328" style="stroke:#181818;stroke-width:0.5;"/><text fill="#000000" font-family="sans-serif" font-size="14" lengthAdjust="spacing" textLength="165.9974" x="931.7913" y="607.2">Get Entrepreneur History</text></g><g id="elem_Certificates"><ellipse cx="72.0374" cy="38.4701" fill="#F1F1F1" rx="66.0374" ry="17.0011" style="stroke:#181818;stroke-width:0.5;"/><text fill="#000000" font-family="sans-serif" font-size="14" lengthAdjust="spacing" textLength="73.8497" x="32.1125" y="43.2031">Certificates</text></g><g id="elem_CreateSubmission"><ellipse cx="371.093" cy="1158.4676" fill="#F1F1F1" rx="87.143" ry="19.8286" style="stroke:#181818;stroke-width:0.5;"/><text fill="#000000" font-family="sans-serif" font-size="14" lengthAdjust="spacing" textLength="122.7655" x="306.7102" y="1163.2006">Create Submission</text></g><g id="elem_ValidateSubmission"><ellipse cx="700.1252" cy="690.47" fill="#F1F1F1" rx="90.8552" ry="20.571" style="stroke:#181818;stroke-width:0.5;"/><text fill="#000000" font-family="sans-serif" font-size="14" lengthAdjust="spacing" textLength="132.3275" x="630.9614" y="695.203">Validate Submission</text></g><g id="elem_ViewSubmissionStatus"><ellipse cx="371.089" cy="795.4648" fill="#F1F1F1" rx="100.029" ry="22.4058" style="stroke:#181818;stroke-width:0.5;"/><text fill="#000000" font-family="sans-serif" font-size="14" lengthAdjust="spacing" textLength="154.9934" x="290.5923" y="800.1978">View Submission Status</text></g><g id="elem_PushSubmission"><ellipse cx="1017.7882" cy="682.4727" fill="#F1F1F1" rx="83.0682" ry="19.0136" style="stroke:#181818;stroke-width:0.5;"/><text fill="#000000" font-family="sans-serif" font-size="14" lengthAdjust="spacing" textLength="111.9156" x="958.8305" y="687.2056">Push Submission</text></g><g id="elem_WithdrawSubmission"><ellipse cx="371.0944" cy="874.4739" fill="#F1F1F1" rx="95.1244" ry="21.4249" style="stroke:#181818;stroke-width:0.5;"/><text fill="#000000" font-family="sans-serif" font-size="14" lengthAdjust="spacing" textLength="143.0235" x="296.5826" y="879.2068">Withdraw Submission</text></g><g id="elem_UpdateOffer"><ellipse cx="371.0856" cy="581.4721" fill="#F1F1F1" rx="74.1156" ry="17.2231" style="stroke:#181818;stroke-width:0.5;"/><text fill="#000000" font-family="sans-serif" font-size="14" lengthAdjust="spacing" textLength="86.1417" x="325.0147" y="586.2051">Update Offer</text></g><g id="elem_SearchOffers"><ellipse cx="371.0889" cy="948.4708" fill="#F1F1F1" rx="75.1089" ry="17.4218" style="stroke:#181818;stroke-width:0.5;"/><text fill="#000000" font-family="sans-serif" font-size="14" lengthAdjust="spacing" textLength="89.1797" x="323.4991" y="953.2038">Search Offers</text></g><g id="elem_FilterOffers"><ellipse cx="371.0943" cy="1017.4687" fill="#F1F1F1" rx="69.0343" ry="17.0197" style="stroke:#181818;stroke-width:0.5;"/><text fill="#000000" font-family="sans-serif" font-size="14" lengthAdjust="spacing" textLength="77.8117" x="329.1885" y="1022.2017">Filter Offers</text></g><g id="elem_RateProject"><ellipse cx="371.091" cy="1086.4647" fill="#F1F1F1" rx="70.051" ry="17.0257" style="stroke:#181818;stroke-width:0.5;"/><text fill="#000000" font-family="sans-serif" font-size="14" lengthAdjust="spacing" textLength="79.1557" x="328.5132" y="1091.1977">Rate Project</text></g><!--link Admin to CreateOffer--><g id="link_Admin_CreateOffer"><path d="M93.93,268.239 C141.2,281.289 257.39,313.359 323,331.469 " fill="none" id="Admin-CreateOffer" style="stroke:#181818;stroke-width:1;"/></g><!--link Admin to UpdateOffer--><g id="link_Admin_UpdateOffer"><path d="M93.93,284.899 C150.18,345.319 304.01,510.509 354.1,564.289 " fill="none" id="Admin-UpdateOffer" style="stroke:#181818;stroke-width:1;"/></g><!--link Admin to CreateProfile--><g id="link_Admin_CreateProfile"><path d="M80.63,222.689 C91.54,177.329 116.34,104.769 168.07,68.469 C207.21,41.009 261.51,36.459 303.96,38.249 " fill="none" id="Admin-CreateProfile" style="stroke:#181818;stroke-width:1;"/></g><!--link Admin to UpdateProfile--><g id="link_Admin_UpdateProfile"><path d="M93.91,235.009 C111.47,213.799 138.4,185.299 168.07,168.469 C209.5,144.979 261.67,131.899 302.62,124.729 " fill="none" id="Admin-UpdateProfile" style="stroke:#181818;stroke-width:1;"/></g><!--link Entrepreneur to ViewSubmissionStatus--><g id="link_Entrepreneur_ViewSubmissionStatus"><path d="M116.73,917.509 C152.67,893.009 205.55,859.089 255.07,835.469 C272.44,827.189 291.99,819.739 309.98,813.579 " fill="none" id="Entrepreneur-ViewSubmissionStatus" style="stroke:#181818;stroke-width:1;"/></g><!--link Entrepreneur to ViewProfile--><g id="link_Entrepreneur_ViewProfile"><path d="M99.69,908.819 C131.48,864.669 188.73,794.399 255.07,755.469 C273.48,744.669 295.59,737.069 315.48,731.829 " fill="none" id="Entrepreneur-ViewProfile" style="stroke:#181818;stroke-width:1;"/></g><!--link Entrepreneur to CreateSubmission--><g id="link_Entrepreneur_CreateSubmission"><path d="M104.66,988.439 C137.99,1027.919 194.05,1087.229 255.07,1121.469 C271.9,1130.909 291.49,1138.349 309.68,1143.999 " fill="none" id="Entrepreneur-CreateSubmission" style="stroke:#181818;stroke-width:1;"/></g><!--link Entrepreneur to SearchOffers--><g id="link_Entrepreneur_SearchOffers"><path d="M116.55,948.469 C163.53,948.469 239.2,948.469 295.66,948.469 " fill="none" id="Entrepreneur-SearchOffers" style="stroke:#181818;stroke-width:1;"/></g><!--link Entrepreneur to FilterOffers--><g id="link_Entrepreneur_FilterOffers"><path d="M116.55,958.579 C170.62,971.139 262.69,992.519 319.75,1005.779 " fill="none" id="Entrepreneur-FilterOffers" style="stroke:#181818;stroke-width:1;"/></g><!--link Entrepreneur to WithdrawSubmission--><g id="link_Entrepreneur_WithdrawSubmission"><path d="M116.48,936.249 C132.65,931.799 151.17,926.789 168.07,922.469 C212.96,910.999 263.68,898.949 303.07,889.799 " fill="none" id="Entrepreneur-WithdrawSubmission" style="stroke:#181818;stroke-width:1;"/></g><!--link Entrepreneur to RateProject--><g id="link_Entrepreneur_RateProject"><path d="M116.44,977.099 C152.43,999.879 205.53,1031.329 255.07,1052.469 C275.86,1061.339 299.68,1068.789 320.24,1074.449 " fill="none" id="Entrepreneur-RateProject" style="stroke:#181818;stroke-width:1;"/></g><!--link Miner to ValidateOffer--><g id="link_Miner_ValidateOffer"><path d="M91.77,445.269 C171.84,452.939 487.58,483.199 629.45,496.789 " fill="none" id="Miner-ValidateOffer" style="stroke:#181818;stroke-width:1;"/></g><!--link Miner to ValidateSubmission--><g id="link_Miner_ValidateSubmission"><path d="M91.83,469.279 C121.67,508.159 183.87,580.969 255.07,616.469 C368.21,672.879 515.65,687.549 608.88,690.699 " fill="none" id="Miner-ValidateSubmission" style="stroke:#181818;stroke-width:1;"/></g><!--link Miner to ValidateProfile--><g id="link_Miner_ValidateProfile"><path d="M91.68,405.189 C119.28,353.349 176.36,262.799 255.07,223.469 C376.1,163.009 538.81,165.989 629.9,173.969 " fill="none" id="Miner-ValidateProfile" style="stroke:#181818;stroke-width:1;"/></g><!--link Miner to CalculateEntrepreneurScore--><g id="link_Miner_CalculateEntrepreneurScore"><path d="M91.77,426.909 C123.51,399.509 190.71,344.309 255.07,309.469 C270.35,301.199 287.56,293.839 303.92,287.639 " fill="none" id="Miner-CalculateEntrepreneurScore" style="stroke:#181818;stroke-width:1;"/></g><!--link Blockchain to PushProfile--><g id="link_Blockchain_PushProfile"><path d="M760.79,565.519 C772.75,557.779 784.56,548.699 794.15,538.469 C813.72,517.579 805.04,502.789 824.15,481.469 C871.01,429.199 943.16,387.929 984.58,366.849 " fill="none" id="Blockchain-PushProfile" style="stroke:#181818;stroke-width:1;"/></g><!--link Blockchain to PushSubmission--><g id="link_Blockchain_PushSubmission"><path d="M760.87,611.939 C819.23,628.019 907.23,652.279 963.33,667.739 " fill="none" id="Blockchain-PushSubmission" style="stroke:#181818;stroke-width:1;"/></g><!--link Blockchain to PushOffer--><g id="link_Blockchain_PushOffer"><path d="M760.87,580.329 C821.82,564.879 915.1,541.239 970.61,527.169 " fill="none" id="Blockchain-PushOffer" style="stroke:#181818;stroke-width:1;"/></g><!--link Blockchain to GetEntrepreneurHistory--><g id="link_Blockchain_GetEntrepreneurHistory"><path d="M760.87,596.799 C803.77,597.749 862.68,599.049 913.17,600.169 " fill="none" id="Blockchain-GetEntrepreneurHistory" style="stroke:#181818;stroke-width:1;"/></g><!--link CreateOffer to OfferDocs--><g id="link_CreateOffer_OfferDocs"><path d="M442.91,345.409 C482.16,345.789 531.84,346.009 576.11,345.469 C585.94,345.349 590.2013,345.3021 600.4313,345.0921 " fill="none" id="CreateOffer-to-OfferDocs" style="stroke:#181818;stroke-width:1;stroke-dasharray:7.0,7.0;"/><polygon fill="#181818" points="606.43,344.969,597.3498,341.1546,601.4311,345.0716,597.514,349.1529,606.43,344.969" style="stroke:#181818;stroke-width:1;"/><text fill="#000000" font-family="sans-serif" font-size="13" lengthAdjust="spacing" textLength="57.5771" x="518.11" y="341.366">&#171;include&#187;</text></g><!--link CreateOffer to OfferDeadline--><g id="link_CreateOffer_OfferDeadline"><path d="M423.55,332.509 C483.63,318.549 576.7557,296.9068 638.3057,282.6068 " fill="none" id="CreateOffer-to-OfferDeadline" style="stroke:#181818;stroke-width:1;stroke-dasharray:7.0,7.0;"/><polygon fill="#181818" points="644.15,281.249,634.4783,279.3895,639.2797,282.3805,636.2887,287.182,644.15,281.249" style="stroke:#181818;stroke-width:1;"/><text fill="#000000" font-family="sans-serif" font-size="13" lengthAdjust="spacing" textLength="57.5771" x="518.11" y="293.326">&#171;include&#187;</text></g><!--link CreateOffer to OfferConditions--><g id="link_CreateOffer_OfferConditions"><path d="M424.64,356.199 C483.5,369.339 572.824,389.2824 634.224,402.9824 " fill="none" id="CreateOffer-to-OfferConditions" style="stroke:#181818;stroke-width:1;stroke-dasharray:7.0,7.0;"/><polygon fill="#181818" points="640.08,404.289,632.1671,398.4251,635.2,403.2001,630.4249,406.2331,640.08,404.289" style="stroke:#181818;stroke-width:1;"/><text fill="#000000" font-family="sans-serif" font-size="13" lengthAdjust="spacing" textLength="57.5771" x="518.11" y="374.676">&#171;include&#187;</text></g><!--link CreateOffer to ValidateOffer--><g id="link_CreateOffer_ValidateOffer"><path d="M403.14,360.059 C432.46,374.729 477.69,397.269 517.11,416.469 C568.75,441.629 623.4975,467.6907 660.0875,485.0207 " fill="none" id="CreateOffer-to-ValidateOffer" style="stroke:#181818;stroke-width:1;stroke-dasharray:7.0,7.0;"/><polygon fill="#181818" points="665.51,487.589,659.0884,480.1216,660.9912,485.4488,655.664,487.3516,665.51,487.589" style="stroke:#181818;stroke-width:1;"/><text fill="#000000" font-family="sans-serif" font-size="13" lengthAdjust="spacing" textLength="57.5771" x="518.11" y="412.366">&#171;include&#187;</text></g><!--link UpdateOffer to ValidateOffer--><g id="link_UpdateOffer_ValidateOffer"><path d="M443.5,585.489 C483.83,585.259 534.37,580.699 576.11,563.469 C592.15,556.849 591.11,547.209 606.11,538.469 C620.57,530.049 631.7836,525.0082 647.1436,519.4882 " fill="none" id="UpdateOffer-to-ValidateOffer" style="stroke:#181818;stroke-width:1;stroke-dasharray:7.0,7.0;"/><polygon fill="#181818" points="652.79,517.459,642.9675,516.7385,648.0846,519.15,645.6731,524.2671,652.79,517.459" style="stroke:#181818;stroke-width:1;"/><text fill="#000000" font-family="sans-serif" font-size="13" lengthAdjust="spacing" textLength="57.5771" x="518.11" y="559.366">&#171;include&#187;</text></g><!--link ValidateOffer to PushOffer--><g id="link_ValidateOffer_PushOffer"><path d="M775.14,506.279 C829.71,508.359 897.1343,510.921 948.6643,512.881 " fill="none" id="ValidateOffer-to-PushOffer" style="stroke:#181818;stroke-width:1;stroke-dasharray:7.0,7.0;"/><polygon fill="#181818" points="954.66,513.109,945.8185,508.7698,949.6636,512.919,945.5145,516.764,954.66,513.109" style="stroke:#181818;stroke-width:1;"/><text fill="#000000" font-family="sans-serif" font-size="13" lengthAdjust="spacing" textLength="57.5771" x="825.15" y="504.296">&#171;include&#187;</text></g><!--link CalculateEntrepreneurScore to ValidateProfile--><g id="link_CalculateEntrepreneurScore_ValidateProfile"><path d="M466.78,251.659 C501.46,245.379 540.83,237.229 576.11,227.469 C604.82,219.529 630.7769,210.1264 654.7369,200.6964 " fill="none" id="CalculateEntrepreneurScore-to-ValidateProfile" style="stroke:#181818;stroke-width:1;stroke-dasharray:7.0,7.0;"/><polygon fill="#181818" points="660.32,198.499,650.4804,198.073,655.6674,200.3301,653.4102,205.5172,660.32,198.499" style="stroke:#181818;stroke-width:1;"/><text fill="#000000" font-family="sans-serif" font-size="13" lengthAdjust="spacing" textLength="57.5771" x="518.11" y="223.366">&#171;include&#187;</text></g><!--link CreateProfile to ValidateProfile--><g id="link_CreateProfile_ValidateProfile"><path d="M420.92,59.949 C441.53,65.999 465.67,73.539 487.11,81.469 C553.65,106.079 622.389,141.0597 662.989,162.7697 " fill="none" id="CreateProfile-to-ValidateProfile" style="stroke:#181818;stroke-width:1;stroke-dasharray:7.0,7.0;"/><polygon fill="#181818" points="668.28,165.599,662.2296,157.8277,663.8708,163.2413,658.4572,164.8825,668.28,165.599" style="stroke:#181818;stroke-width:1;"/><text fill="#000000" font-family="sans-serif" font-size="13" lengthAdjust="spacing" textLength="57.5771" x="518.11" y="91.476">&#171;include&#187;</text></g><!--link Certificates to CreateProfile--><g id="link_Certificates_CreateProfile"><path d="M131.5,30.629 C143.57,29.319 156.22,28.159 168.07,27.469 C193.37,26.009 199.8,25.819 225.07,27.469 C252.44,29.259 276.5892,32.0779 302.2292,35.7079 " fill="none" id="Certificates-to-CreateProfile" style="stroke:#181818;stroke-width:1;stroke-dasharray:7.0,7.0;"/><polygon fill="#181818" points="308.17,36.549,299.8196,31.3269,303.2194,35.8481,298.6982,39.2479,308.17,36.549" style="stroke:#181818;stroke-width:1;"/><text fill="#000000" font-family="sans-serif" font-size="13" lengthAdjust="spacing" textLength="55.497" x="169.07" y="22.206">&#171;extend&#187;</text></g><!--link UpdateProfile to ValidateProfile--><g id="link_UpdateProfile_ValidateProfile"><path d="M430.18,128.189 C489.29,140.119 574.5384,157.3328 634.0384,169.3328 " fill="none" id="UpdateProfile-to-ValidateProfile" style="stroke:#181818;stroke-width:1;stroke-dasharray:7.0,7.0;"/><polygon fill="#181818" points="639.92,170.519,631.8884,164.8187,635.0187,169.5305,630.3068,172.6608,639.92,170.519" style="stroke:#181818;stroke-width:1;"/><text fill="#000000" font-family="sans-serif" font-size="13" lengthAdjust="spacing" textLength="57.5771" x="518.11" y="143.386">&#171;include&#187;</text></g><!--link Certificates to UpdateProfile--><g id="link_Certificates_UpdateProfile"><path d="M119.45,50.659 C173.63,64.879 257.1267,86.8053 313.2267,101.5353 " fill="none" id="Certificates-to-UpdateProfile" style="stroke:#181818;stroke-width:1;stroke-dasharray:7.0,7.0;"/><polygon fill="#181818" points="319.03,103.059,311.3409,96.9045,314.1939,101.7892,309.3092,104.6422,319.03,103.059" style="stroke:#181818;stroke-width:1;"/><text fill="#000000" font-family="sans-serif" font-size="13" lengthAdjust="spacing" textLength="55.497" x="169.07" y="59.596">&#171;extend&#187;</text></g><!--link ValidateProfile to PushProfile--><g id="link_ValidateProfile_PushProfile"><path d="M732.55,199.289 C793.68,232.019 922.5305,301.0068 982.0505,332.8768 " fill="none" id="ValidateProfile-to-PushProfile" style="stroke:#181818;stroke-width:1;stroke-dasharray:7.0,7.0;"/><polygon fill="#181818" points="987.34,335.709,981.294,327.9343,982.9321,333.3488,977.5176,334.9869,987.34,335.709" style="stroke:#181818;stroke-width:1;"/><text fill="#000000" font-family="sans-serif" font-size="13" lengthAdjust="spacing" textLength="57.5771" x="825.15" y="247.726">&#171;include&#187;</text></g><!--link CreateSubmission to ValidateSubmission--><g id="link_CreateSubmission_ValidateSubmission"><path d="M440.63,1146.209 C457.21,1140.739 473.93,1132.849 487.11,1121.469 C622.79,1004.269 678.8417,785.7934 693.7317,716.9434 " fill="none" id="CreateSubmission-to-ValidateSubmission" style="stroke:#181818;stroke-width:1;stroke-dasharray:7.0,7.0;"/><polygon fill="#181818" points="695,711.079,689.188,719.0301,693.9431,715.966,697.0072,720.7212,695,711.079" style="stroke:#181818;stroke-width:1;"/><text fill="#000000" font-family="sans-serif" font-size="13" lengthAdjust="spacing" textLength="57.5771" x="518.11" y="1018.956">&#171;include&#187;</text></g><!--link ValidateSubmission to PushSubmission--><g id="link_ValidateSubmission_PushSubmission"><path d="M791.41,690.809 C820.68,690.699 853.3,690.329 883.15,689.469 C900.56,688.969 913.2576,688.4601 930.9676,687.5701 " fill="none" id="ValidateSubmission-to-PushSubmission" style="stroke:#181818;stroke-width:1;stroke-dasharray:7.0,7.0;"/><polygon fill="#181818" points="936.96,687.269,927.7706,683.7258,931.9663,687.52,928.1721,691.7157,936.96,687.269" style="stroke:#181818;stroke-width:1;"/><text fill="#000000" font-family="sans-serif" font-size="13" lengthAdjust="spacing" textLength="57.5771" x="825.15" y="685.366">&#171;include&#187;</text></g><!--SRC=[fPJRRjmW48RlUGgqzya3LD5AxVPqKpMArVQQud6NrWiHuAPz-t8mPXYyIgJUsV__CGp3C3DCddl3hVfnzdnK5gHNHZCcf3UMlnulIg_VxxIty6X1ms9NwPFIKBuFRsOZVycpK9eFO7yh2GSk7AyoOui3AHpmmyc2yC0_JnFOH6KX_LVggvZLs7958kJzuiw8Yh-4IB_yBOXn3aadAab5wKWZbmjeBs8v46wae-Z9w555p5MkQlsfxwsPr0petAjIoI-F8oMpr95RZJ1Rn8vETS9a5FgO2fxQU47eg9EOvJB7hN5dy44Qkvwj0DXFTWto0Nox_ADoePl-fW31nDvguOA2zMfICkoHQu-5ll33ylsYd2iNcjKgxXILh2ZwxffOj6hm8RJEuhRoLISRv4x8Hb7Rs-IRykVHYYVA5nsjwPgfFeyia0SoWB1oVKGvxQnaeNBlrUn3qoCkAvHxM9loPvWe2Nl83Hd_6Kk3XT_SD0z_4t62X2njIDWYiwQPWhrR-pseHA1UroKKQCf4pQOsrDovDOeqHKlZDkNRJC5EHl4whnnpCww_KiuOcka1nSEYTz2klPapRVLhpnkr1B-zFTR1or_nkpkbvRoCS3nUuTPv_XAs3cb2TtXJS0AZPdsMRRr8RyNfKhX-BtYNzJvsZrky5_1eRYQy3H1X-ED1Zzjv_oDs4w09pMYaKg7zo8o-pIOR9EzV0bdNzd2xvXy0]--></g></svg>